<?xml version="1.0" encoding="UTF-8" standalone="no"?><!DOCTYPE svg PUBLIC "-//W3C//DTD SVG 1.1//EN" "http://www.w3.org/Graphics/SVG/1.1/DTD/svg11.dtd"><svg width="100%" height="100%" viewBox="0 0 2134 2134" version="1.1" xmlns="http://www.w3.org/2000/svg" xmlns:xlink="http://www.w3.org/1999/xlink" xml:space="preserve" xmlns:serif="http://www.serif.com/" style="fill-rule:evenodd;clip-rule:evenodd;stroke-linejoin:round;stroke-miterlimit:2;"><path d="M2133.25,1034.47c-0.046,-0.471 -0.041,-0.946 -0.108,-1.412c-0.029,-0.205 -0.104,-0.396 -0.133,-0.6c-0.559,-3.146 -1.709,-6.18 -3.509,-8.905c-0.058,-0.083 -0.129,-0.162 -0.183,-0.241c-0.592,-0.875 -1.238,-1.729 -1.954,-2.529c-0.063,-0.071 -0.134,-0.121 -0.192,-0.188c-6.317,-6.867 -16.087,-9.387 -24.942,-6.396l-0.083,0.029l-1.533,0.521c-0.067,0.025 -0.138,0.046 -0.204,0.067c-1.442,0.483 -2.959,0.983 -4.692,1.542l-0.642,0.208c-1.766,0.571 -3.646,1.162 -5.237,1.654l-0.242,0.071c-0.037,0.008 -0.071,0.025 -0.104,0.033l-0.329,0.092l-14.079,4.092l-6.5,1.733c-2.121,0.554 -4.305,1.1 -6.384,1.604l-0.096,0.025c-0.02,0.004 -0.033,0.008 -0.045,0.012l-0.867,0.205l-0.279,0.066c-1.854,0.45 -3.529,0.846 -5.171,1.217c-0.163,0.037 -0.333,0.079 -0.504,0.117l-0.896,0.204l-1.183,0.271c-1.867,0.412 -3.43,0.754 -4.955,1.079l-2.7,0.566c-1.595,0.33 -3.208,0.646 -4.816,0.963l-2.525,0.496c-0.013,0.004 -0.029,0.004 -0.038,0.004l-0.083,0.012c-0.875,0.167 -1.854,0.342 -2.783,0.505c-1.071,0.2 -2.13,0.395 -3.23,0.591l-1.337,0.242c-2.496,0.429 -5.029,0.846 -7.413,1.221l-0.058,0.008c-0.046,0.004 -0.092,0.013 -0.129,0.021l-2.333,0.35c-0.296,0.042 -0.6,0.083 -0.892,0.129c-1.513,0.225 -3.025,0.454 -4.475,0.654l-1.788,0.242l-1.312,0.179c-1.104,0.146 -2.267,0.288 -3.417,0.434c-0.546,0.07 -1.1,0.141 -1.646,0.208l-2.341,0.279l-0.821,0.1c-1.75,0.2 -3.646,0.4 -5.563,0.6l-1.445,0.146l-1.059,0.108c-0.037,0.004 -0.075,0.004 -0.104,0.009l-0.071,0.004c-1.096,0.104 -2.296,0.2 -3.441,0.296c-1.521,0.137 -3.067,0.287 -4.53,0.4l-0.083,0.004c-0.021,-0 -0.029,0.004 -0.037,0.004l-0.534,0.037l-0.966,0.071c-2.317,0.171 -4.642,0.329 -6.859,0.463l-0.121,0.008l-3.02,0.163c-1.596,0.083 -3.234,0.154 -4.896,0.225c-0.221,0.008 -0.467,0.025 -0.684,0.033l-0.037,-0c-0.038,-0 -0.079,0.004 -0.117,0.004l-1.891,0.067l-1.313,0.046c-0.029,-0 -0.058,0.004 -0.083,0.004l-0.009,-0c-1.816,0.058 -3.737,0.104 -5.704,0.141l-2.558,0.042l-0.579,0.008l-0.013,0l-0.121,0.005c-1.162,0.012 -2.462,0.012 -3.758,0.02c-0.217,0 -0.437,0.005 -0.65,0.005l-0.242,-0l-2.783,-0.005l-0.683,0.005l-0.225,-0l-0.592,-0.005c-2.479,-0.025 -5.125,-0.083 -7.775,-0.162c-0.275,-0.004 -0.575,-0.004 -0.846,-0.013l-0.029,0c-0.067,-0.004 -0.117,-0.004 -0.179,-0.004l-1.988,-0.079l-0.7,-0.025c-2.162,-0.079 -4.32,-0.171 -6.354,-0.275l-0.029,-0.004l-0.067,-0l-3.52,-0.204c-0.696,-0.042 -1.392,-0.096 -2.092,-0.142c-1.254,-0.079 -2.517,-0.162 -3.733,-0.25l-1.034,-0.079l-2.737,-0.213c-1.684,-0.141 -3.484,-0.312 -5.275,-0.487c-0.321,-0.029 -0.638,-0.058 -0.959,-0.092l-3.125,-0.308c-0.02,-0.004 -0.037,-0.004 -0.058,-0.004l-0.083,-0.004c-0.046,-0.005 -0.104,-0.013 -0.154,-0.021c-3.005,-0.317 -6.021,-0.671 -8.813,-1.029l-0.225,-0.03c-0.042,-0.004 -0.092,-0.008 -0.121,-0.012l-0.929,-0.133l-0.533,-0.075c-2.692,-0.359 -5.367,-0.738 -7.859,-1.121l-0.095,-0.013c-0.042,-0.004 -0.08,-0.008 -0.113,-0.012l-3.375,-0.542c-2.108,-0.346 -4.233,-0.7 -6.362,-1.079l-3.863,-0.713c-1.671,-0.316 -3.421,-0.666 -5.154,-1.02c-0.321,-0.067 -0.646,-0.121 -0.967,-0.188l-3.704,-0.771c-0.021,0 -0.037,-0.004 -0.058,-0.008l-0.075,-0.013c-1.442,-0.308 -2.992,-0.67 -4.517,-1.02c-0.929,-0.217 -1.825,-0.4 -2.783,-0.63l-2.425,-0.558c-0.009,0 -0.009,-0.004 -0.021,-0.004l-0.221,-0.05c-1.954,-0.471 -4.033,-1 -6.129,-1.542c-1.088,-0.283 -2.179,-0.562 -3.233,-0.846l-0.484,-0.133l-2.691,-0.746c-0.53,-0.146 -1.063,-0.304 -1.592,-0.454c-1.796,-0.5 -3.6,-1 -5.279,-1.496l-3.296,-1l-0.75,-0.225c-0.221,-0.071 -0.463,-0.146 -0.688,-0.216c-1.991,-0.617 -3.812,-1.192 -5.516,-1.746c-0.046,-0.013 -0.092,-0.029 -0.134,-0.042l-1.683,-0.558l-2.158,-0.709c-0.046,-0.012 -0.084,-0.029 -0.117,-0.041l-0.058,-0.021c-2.079,-0.7 -4.296,-1.479 -6.546,-2.275l-1.221,-0.433l-2.262,-0.809c-0.009,-0.004 -0.021,-0.008 -0.034,-0.012l-0.179,-0.063c-1.725,-0.633 -3.512,-1.304 -5.321,-1.991c-1.454,-0.559 -2.887,-1.109 -4.275,-1.663l-1.183,-0.487c-3.288,-1.321 -6.246,-2.55 -9.004,-3.73l-3.871,-1.7c-2.192,-0.962 -4.392,-1.95 -6.325,-2.841l-0.138,-0.067c-0.05,-0.025 -0.095,-0.042 -0.141,-0.067l-6.642,-3.17l-0.517,-0.246l0,-0.004l-0.008,-0.005l-6.1,-4.062c-39.596,-19.808 -89.204,-50.771 -128.092,-95.071c-89.583,-88.437 -178.637,-126.808 -252.191,-141.396c-0.009,-0.004 -0.021,-0.004 -0.029,-0.004c-3.175,-0.629 -6.325,-1.212 -9.442,-1.754c-0.129,-0.025 -0.254,-0.042 -0.379,-0.063c-2.996,-0.52 -5.975,-1 -8.913,-1.445c-0.275,-0.042 -0.537,-0.075 -0.808,-0.113c-2.796,-0.417 -5.567,-0.804 -8.304,-1.158c-0.421,-0.05 -0.838,-0.096 -1.259,-0.146c-2.57,-0.321 -5.137,-0.625 -7.662,-0.892c-0.608,-0.066 -1.2,-0.112 -1.804,-0.175c-2.329,-0.237 -4.642,-0.462 -6.925,-0.65c-0.788,-0.066 -1.554,-0.112 -2.342,-0.175c-2.067,-0.162 -4.146,-0.321 -6.183,-0.45c-1.042,-0.066 -2.054,-0.104 -3.084,-0.162c-1.745,-0.096 -3.508,-0.2 -5.229,-0.271c-1.462,-0.063 -2.9,-0.092 -4.346,-0.133c-1.25,-0.038 -2.512,-0.092 -3.741,-0.113c-2.671,-0.05 -5.296,-0.079 -7.888,-0.079c-113.821,-0 -202.291,48.075 -243.458,89.242c-41.171,-41.171 -129.638,-89.242 -243.463,-89.242c-2.587,-0 -5.216,0.029 -7.883,0.079c-1.233,0.025 -2.492,0.075 -3.742,0.113c-1.45,0.041 -2.879,0.075 -4.345,0.133c-1.725,0.071 -3.484,0.175 -5.23,0.271c-1.033,0.058 -2.045,0.096 -3.083,0.162c-2.037,0.129 -4.112,0.288 -6.183,0.45c-0.788,0.063 -1.554,0.109 -2.342,0.175c-2.279,0.188 -4.6,0.417 -6.925,0.65c-0.604,0.063 -1.196,0.109 -1.804,0.175c-2.525,0.263 -5.088,0.571 -7.663,0.892c-0.425,0.05 -0.841,0.096 -1.262,0.146c-2.742,0.35 -5.508,0.741 -8.304,1.158c-0.271,0.042 -0.534,0.075 -0.809,0.113c-2.937,0.441 -5.916,0.925 -8.912,1.445c-0.121,0.021 -0.25,0.038 -0.379,0.063c-3.117,0.542 -6.263,1.129 -9.442,1.754c-0.008,0.004 -0.021,0.004 -0.029,0.004c-73.554,14.588 -162.604,52.959 -252.192,141.396c-38.887,44.3 -88.496,75.263 -128.091,95.071l-6.1,4.062l-0.009,0.005l0,0.004l-0.512,0.246l-6.642,3.17c-0.05,0.025 -0.1,0.042 -0.142,0.067l-0.137,0.067c-1.938,0.891 -4.142,1.879 -6.325,2.841l-3.871,1.7c-2.758,1.18 -5.717,2.405 -9.004,3.73l-1.183,0.487c-1.388,0.554 -2.834,1.104 -4.275,1.663c-1.809,0.687 -3.596,1.358 -5.321,1.991l-0.179,0.063c-0.013,0.004 -0.025,0.008 -0.034,0.012l-2.266,0.809l-1.217,0.433c-2.246,0.796 -4.471,1.575 -6.546,2.275l-0.058,0.021c-0.038,0.012 -0.075,0.029 -0.117,0.041l-2.158,0.709l-1.684,0.558c-0.045,0.013 -0.091,0.029 -0.133,0.042c-1.704,0.558 -3.525,1.129 -5.517,1.746c-0.233,0.07 -0.47,0.15 -0.687,0.216l-0.754,0.225l-3.292,1c-1.675,0.496 -3.483,0.996 -5.279,1.496c-0.529,0.15 -1.063,0.308 -1.592,0.454l-2.691,0.746l-0.484,0.133c-1.054,0.284 -2.141,0.563 -3.233,0.846c-2.096,0.542 -4.175,1.071 -6.129,1.542l-0.225,0.05c-0.004,0.004 -0.004,0.004 -0.013,0.004l-2.425,0.558c-0.958,0.225 -1.854,0.417 -2.783,0.63c-1.525,0.35 -3.079,0.712 -4.517,1.02l-0.075,0.013c-0.021,0.004 -0.037,0.008 -0.058,0.008l-3.704,0.771c-0.321,0.067 -0.646,0.121 -0.967,0.188c-1.733,0.354 -3.483,0.704 -5.154,1.02l-3.863,0.713c-2.129,0.379 -4.25,0.737 -6.362,1.079l-3.375,0.542c-0.038,0.004 -0.075,0.008 -0.117,0.012l-0.091,0.013c-2.492,0.383 -5.171,0.766 -7.859,1.121l-0.533,0.075l-0.929,0.133c-0.042,0.004 -0.084,0.008 -0.121,0.012l-0.225,0.03c-2.796,0.358 -5.813,0.708 -8.813,1.029c-0.058,0.004 -0.108,0.012 -0.154,0.021l-0.083,0.004c-0.021,0.004 -0.038,0.004 -0.058,0.004l-3.125,0.308c-0.321,0.034 -0.642,0.059 -0.959,0.092c-1.787,0.175 -3.587,0.346 -5.275,0.487l-2.737,0.213l-1.034,0.079c-1.216,0.092 -2.479,0.171 -3.733,0.25c-0.704,0.046 -1.4,0.1 -2.092,0.142l-3.52,0.204l-0.067,-0l-0.029,0.004c-2.034,0.104 -4.192,0.2 -6.354,0.275l-0.7,0.025l-1.988,0.079c-0.062,0 -0.112,0 -0.179,0.004l-0.029,0c-0.271,0.009 -0.571,0.009 -0.846,0.013c-2.654,0.075 -5.296,0.133 -7.775,0.162l-0.592,0.005l-0.221,-0l-0.683,-0.005l-2.783,0.005l-0.242,-0c-0.212,-0 -0.433,-0.005 -0.65,-0.005c-1.292,-0.004 -2.596,-0.004 -3.758,-0.02l-0.121,-0.005l-0.013,0l-0.579,-0.008l-2.562,-0.042c-1.963,-0.037 -3.879,-0.083 -5.7,-0.141l-0.009,-0c-0.029,-0 -0.058,-0.004 -0.083,-0.004l-1.312,-0.046l-1.892,-0.067c-0.046,-0.004 -0.083,-0.004 -0.117,-0.004l-0.037,-0c-0.217,-0.008 -0.463,-0.025 -0.684,-0.033c-1.662,-0.071 -3.3,-0.142 -4.895,-0.225l-3.021,-0.163l-0.121,-0.008c-2.217,-0.134 -4.546,-0.288 -6.858,-0.463l-0.967,-0.071l-0.533,-0.037c-0.009,-0 -0.025,-0.004 -0.038,-0.004l-0.083,-0.004c-1.459,-0.113 -3.009,-0.263 -4.529,-0.4c-1.142,-0.1 -2.342,-0.192 -3.442,-0.296l-0.071,-0.004c-0.033,-0.005 -0.071,-0.005 -0.104,-0.009l-1.058,-0.108l-1.446,-0.146c-1.917,-0.2 -3.813,-0.4 -5.563,-0.6l-0.821,-0.1l-2.341,-0.279c-0.542,-0.067 -1.096,-0.142 -1.646,-0.208c-1.146,-0.146 -2.308,-0.288 -3.417,-0.434l-1.312,-0.179l-1.796,-0.242c-1.45,-0.204 -2.958,-0.429 -4.471,-0.654c-0.296,-0.041 -0.6,-0.083 -0.892,-0.129l-2.333,-0.35c-0.042,-0.004 -0.083,-0.013 -0.129,-0.021l-0.058,-0.008c-2.388,-0.379 -4.913,-0.788 -7.413,-1.221l-1.337,-0.242c-1.096,-0.2 -2.159,-0.391 -3.23,-0.591c-0.925,-0.171 -1.908,-0.342 -2.783,-0.505l-0.083,-0.012c-0.009,-0.004 -0.025,-0.004 -0.038,-0.004l-2.525,-0.496c-1.604,-0.317 -3.221,-0.633 -4.812,-0.963l-2.7,-0.566c-1.525,-0.325 -3.092,-0.671 -4.95,-1.079l-1.192,-0.271l-0.892,-0.204c-0.166,-0.038 -0.341,-0.08 -0.5,-0.117c-1.637,-0.375 -3.312,-0.771 -5.17,-1.217l-0.28,-0.066l-0.866,-0.205c-0.013,-0.004 -0.029,-0.008 -0.046,-0.012l-0.096,-0.025c-2.071,-0.504 -4.258,-1.058 -6.383,-1.604l-6.5,-1.733l-14.079,-4.092l-0.33,-0.092c-0.037,-0.008 -0.075,-0.025 -0.108,-0.033l-0.242,-0.071c-1.591,-0.492 -3.47,-1.079 -5.241,-1.654l-0.638,-0.208c-1.733,-0.563 -3.254,-1.063 -4.691,-1.542c-0.067,-0.021 -0.138,-0.042 -0.205,-0.067l-1.537,-0.521l-0.083,-0.029c-8.85,-2.991 -18.625,-0.471 -24.942,6.396c-0.063,0.071 -0.133,0.121 -0.192,0.188c-0.716,0.804 -1.362,1.658 -1.954,2.529c-0.058,0.083 -0.129,0.162 -0.183,0.241c-1.8,2.725 -2.95,5.759 -3.509,8.904c-0.033,0.205 -0.108,0.396 -0.133,0.6c-0.071,0.467 -0.067,0.938 -0.108,1.413c-0.359,4.042 0.262,8.179 2.046,12.013c110.725,238.629 325.587,274.258 443.82,274.258c54.434,-0 91.246,-7.517 91.425,-7.554l0.013,-0.004l0.008,-0l-17.966,33.55c-0.009,0.012 -0.021,0.029 -0.03,0.041l-0.9,1.696c-2.945,5.492 -3.541,11.833 -1.87,17.658c0.05,0.18 0.108,0.355 0.166,0.534c0.579,1.854 1.379,3.65 2.421,5.35c0.471,0.758 1,1.471 1.55,2.162c0.204,0.259 0.404,0.504 0.617,0.754c1.787,2.084 3.908,3.813 6.258,5.142c0.279,0.154 0.554,0.308 0.829,0.454c2.267,1.163 4.729,1.946 7.3,2.346c0.846,0.121 1.692,0.225 2.567,0.258c0.533,0.03 1.067,0.084 1.604,0.08c255.083,-6.938 383.45,-80.071 446.208,-140.2c50.934,-48.805 69.717,-97.188 76.6,-124.505l3.905,0.013l3.904,-0.013c6.883,27.321 25.666,75.7 76.6,124.505c62.762,60.129 191.125,133.266 446.208,140.2c0.538,0.008 1.071,-0.05 1.604,-0.08c0.875,-0.033 1.725,-0.133 2.567,-0.258c2.567,-0.4 5.029,-1.183 7.3,-2.346c0.279,-0.146 0.554,-0.296 0.829,-0.454c2.35,-1.325 4.471,-3.054 6.258,-5.142c0.213,-0.25 0.417,-0.495 0.617,-0.754c0.546,-0.687 1.075,-1.404 1.55,-2.162c1.042,-1.696 1.842,-3.492 2.421,-5.35c0.05,-0.179 0.117,-0.354 0.167,-0.534c1.67,-5.825 1.07,-12.17 -1.871,-17.658l-0.9,-1.696c-0.009,-0.012 -0.021,-0.029 -0.029,-0.041l-17.971,-33.55l0.008,-0l0.021,0.004c0.175,0.037 36.992,7.554 91.425,7.554c118.229,-0 333.096,-35.633 443.821,-274.258c1.75,-3.83 2.366,-7.971 2.012,-12.013Z" style="fill:#fff;fill-rule:nonzero;"/><path d="M788.488,1319.88c-163.376,0 -295.821,-132.446 -295.821,-295.821c-0,-65.4 21.262,-125.812 57.195,-174.783c-18.933,14.571 -38.041,31.15 -57.158,50.033c-38.887,44.3 -88.496,75.263 -128.092,95.071l-6.1,4.062l-0.008,0.005l0,0.004l-0.512,0.246l-6.642,3.17c-0.05,0.025 -0.1,0.042 -0.142,0.067l-0.137,0.067c-1.938,0.891 -4.142,1.879 -6.325,2.841l-3.871,1.7c-2.758,1.18 -5.717,2.405 -9.004,3.73l-1.184,0.487c-1.387,0.554 -2.833,1.104 -4.275,1.663c-1.808,0.687 -3.595,1.358 -5.32,1.991l-0.18,0.063c-0.012,0.004 -0.025,0.008 -0.033,0.012l-2.267,0.809l-1.216,0.433c-2.246,0.796 -4.471,1.575 -6.546,2.275l-0.058,0.021c-0.038,0.012 -0.075,0.029 -0.117,0.041l-2.158,0.709l-1.684,0.558c-0.046,0.013 -0.091,0.029 -0.133,0.042c-1.704,0.558 -3.525,1.129 -5.517,1.746c-0.233,0.07 -0.471,0.15 -0.687,0.216l-0.754,0.225l-3.292,1c-1.675,0.496 -3.483,0.996 -5.279,1.496c-0.529,0.15 -1.063,0.308 -1.592,0.454l-2.692,0.746l-0.483,0.133c-1.054,0.284 -2.142,0.563 -3.233,0.846c-2.096,0.542 -4.175,1.071 -6.129,1.542l-0.225,0.05c-0.005,0.004 -0.005,0.004 -0.013,0.004l-2.425,0.558c-0.958,0.225 -1.854,0.417 -2.783,0.63c-1.525,0.35 -3.079,0.712 -4.517,1.02l-0.075,0.013c-0.021,0.004 -0.037,0.008 -0.058,0.008l-3.704,0.771c-0.321,0.067 -0.646,0.121 -0.967,0.188c-1.733,0.354 -3.483,0.704 -5.154,1.02l-3.863,0.713c-2.129,0.379 -4.25,0.737 -6.362,1.079l-3.375,0.542c-0.038,0.004 -0.075,0.008 -0.117,0.012l-0.092,0.013c-2.491,0.383 -5.17,0.766 -7.858,1.121l-0.533,0.075l-0.929,0.133c-0.042,0.004 -0.084,0.008 -0.121,0.012l-0.225,0.03c-2.796,0.358 -5.813,0.708 -8.813,1.029c-0.058,0.004 -0.108,0.012 -0.154,0.021l-0.083,0.004c-0.021,0.004 -0.038,0.004 -0.059,0.004l-3.125,0.308c-0.32,0.034 -0.641,0.059 -0.958,0.092c-1.787,0.175 -3.587,0.346 -5.275,0.487l-2.737,0.213l-1.034,0.079c-1.216,0.092 -2.479,0.171 -3.733,0.25c-0.704,0.046 -1.4,0.1 -2.092,0.142l-3.521,0.204l-0.066,-0l-0.029,0.004c-2.034,0.104 -4.192,0.2 -6.355,0.275l-0.7,0.025l-1.987,0.079c-0.063,0 -0.113,0 -0.179,0.004l-0.029,0c-0.271,0.009 -0.571,0.009 -0.846,0.013c-2.654,0.075 -5.296,0.133 -7.775,0.162l-0.592,0.005l-0.921,-0l-2.783,0.004l-0.242,-0c-0.212,-0 -0.433,-0.004 -0.65,-0.004c-1.291,-0.004 -2.596,-0.004 -3.758,-0.021l-0.121,-0.004l-0.012,-0l-0.58,-0.009l-2.562,-0.041c-1.963,-0.038 -3.879,-0.084 -5.7,-0.142l-0.008,0c-0.03,0 -0.059,-0.004 -0.084,-0.004l-1.312,-0.046l-1.892,-0.067c-0.046,-0.004 -0.083,-0.004 -0.117,-0.004l-0.037,0c-0.217,-0.008 -0.463,-0.025 -0.683,-0.033c-1.663,-0.071 -3.3,-0.142 -4.896,-0.225l-3.021,-0.163l-0.121,-0.008c-2.217,-0.133 -4.546,-0.287 -6.858,-0.462l-0.967,-0.071l-0.533,-0.038c-0.009,0 -0.025,-0.004 -0.038,-0.004l-0.083,-0.004c-1.458,-0.113 -3.008,-0.263 -4.529,-0.4c-1.142,-0.1 -2.342,-0.192 -3.442,-0.296l-0.071,-0.004c-0.033,-0.004 -0.071,-0.004 -0.104,-0.009l-1.058,-0.108l-1.446,-0.146c-1.917,-0.2 -3.813,-0.4 -5.563,-0.6l-0.82,-0.1l-2.342,-0.279c-0.542,-0.067 -1.096,-0.142 -1.646,-0.208c-1.146,-0.146 -2.308,-0.288 -3.417,-0.434l-1.312,-0.179l-1.796,-0.241c-1.45,-0.205 -2.958,-0.43 -4.471,-0.655c-0.296,-0.041 -0.6,-0.083 -0.891,-0.129l-2.334,-0.35c-0.041,-0.004 -0.083,-0.012 -0.129,-0.021l-0.058,-0.008c-2.388,-0.379 -4.913,-0.787 -7.413,-1.221l-1.337,-0.241c-1.096,-0.2 -2.159,-0.392 -3.229,-0.592c-0.925,-0.171 -1.909,-0.342 -2.784,-0.504l-0.083,-0.013c-0.008,-0.004 -0.025,-0.004 -0.038,-0.004l-2.525,-0.496c-1.604,-0.316 -3.22,-0.633 -4.812,-0.962l-2.7,-0.567c-1.525,-0.325 -3.092,-0.671 -4.95,-1.079l-1.192,-0.271l-0.891,-0.204c-0.167,-0.038 -0.342,-0.079 -0.5,-0.117c-1.638,-0.371 -3.313,-0.771 -5.171,-1.216l-0.279,-0.067l-0.867,-0.204c-0.013,-0.004 -0.029,-0.009 -0.046,-0.013l-0.096,-0.025c-2.071,-0.504 -4.258,-1.058 -6.383,-1.604l-6.5,-1.733l-14.079,-4.092l-0.329,-0.092c-0.038,-0.008 -0.075,-0.025 -0.109,-0.033l-0.241,-0.071c-1.592,-0.491 -3.471,-1.079 -5.242,-1.654l-0.638,-0.208c-1.733,-0.563 -3.254,-1.063 -4.691,-1.542c-0.067,-0.021 -0.138,-0.042 -0.204,-0.067l-1.538,-0.52l-0.083,-0.03c-8.85,-2.991 -18.625,-0.47 -24.942,6.396c-0.062,0.071 -0.133,0.121 -0.192,0.188c-0.716,0.804 -1.362,1.658 -1.954,2.529c-0.058,0.083 -0.129,0.162 -0.183,0.242c-1.8,2.725 -2.95,5.758 -3.508,8.904c-0.034,0.204 -0.109,0.396 -0.134,0.6c-0.071,0.466 -0.066,0.937 -0.108,1.412c-0.358,4.042 0.262,8.179 2.046,12.013c110.725,238.629 325.587,274.258 443.821,274.258c54.433,0 91.245,-7.517 91.425,-7.554l0.012,-0.004l0.008,-0l-17.966,33.55c-0.009,0.012 -0.021,0.029 -0.029,0.041l-0.9,1.696c-2.946,5.492 -3.542,11.834 -1.871,17.659c0.05,0.179 0.108,0.354 0.166,0.533c0.58,1.854 1.38,3.65 2.421,5.35c0.471,0.758 1,1.471 1.55,2.162c0.204,0.259 0.404,0.505 0.617,0.755c1.787,2.083 3.908,3.812 6.258,5.141c0.279,0.154 0.554,0.309 0.829,0.454c2.267,1.163 4.73,1.946 7.3,2.346c0.846,0.121 1.692,0.225 2.567,0.259c0.533,0.029 1.067,0.083 1.604,0.079c233.259,-6.346 360.509,-68.034 428.575,-124.529c-49.891,38.341 -112.295,61.183 -180.07,61.183Z" style="fill:#fff;fill-rule:nonzero;"/><path d="M2132.85,1041.33c0.063,-0.296 0.142,-0.591 0.188,-0.887c0.15,-0.934 0.245,-1.879 0.279,-2.817c0.008,-0.046 0.012,-0.1 0.021,-0.146c0.029,-1 -0,-2.008 -0.084,-3.008c-0.046,-0.471 -0.041,-0.946 -0.108,-1.413c-0.008,-0.045 -0.021,-0.095 -0.029,-0.137c-0.029,-0.163 -0.084,-0.317 -0.109,-0.483c-0.25,-1.417 -0.666,-2.8 -1.162,-4.155c-0.1,-0.254 -0.183,-0.512 -0.296,-0.766c-0.554,-1.375 -1.217,-2.709 -2.05,-3.967c-0.058,-0.083 -0.129,-0.162 -0.183,-0.242c-0.592,-0.875 -1.238,-1.729 -1.954,-2.529c-0.075,-0.083 -0.167,-0.15 -0.246,-0.237c-3.15,-3.409 -7.15,-5.742 -11.467,-6.85c-0.046,-0.009 -0.096,-0.013 -0.137,-0.025c-1.038,-0.259 -2.092,-0.459 -3.159,-0.575c-0.237,-0.025 -0.466,-0.009 -0.7,-0.029c-0.887,-0.071 -1.775,-0.134 -2.666,-0.1c-0.505,0.02 -1.009,0.108 -1.517,0.162c-0.625,0.062 -1.25,0.092 -1.879,0.204c-1.134,0.204 -2.258,0.492 -3.367,0.867l-1.625,0.546c-0.121,0.041 -0.258,0.083 -0.387,0.129c-1.384,0.462 -2.846,0.946 -4.509,1.483l-0.641,0.209c-1.767,0.57 -3.646,1.162 -5.234,1.654l-0.258,0.075c-0.033,0.008 -0.063,0.021 -0.092,0.029l-0.287,0.079l-14.125,4.108l-6.5,1.734c-2.121,0.554 -4.304,1.1 -6.383,1.604l-0.096,0.025c-0.021,0.004 -0.034,0.008 -0.046,0.012l-0.425,0.1l-0.717,0.171c-1.833,0.446 -3.492,0.838 -5.112,1.204c-0.021,0.005 -0.042,0.009 -0.059,0.013c-0.162,0.037 -0.333,0.079 -0.504,0.117l-0.887,0.199l-1.2,0.271c-1.867,0.413 -3.43,0.755 -4.955,1.08l-2.7,0.566c-1.595,0.329 -3.208,0.646 -4.816,0.963l-2.525,0.495c-0.013,0.005 -0.029,0.005 -0.038,0.005l-0.083,0.012c-0.525,0.1 -1.104,0.204 -1.671,0.3c-1.433,0.271 -2.862,0.534 -4.337,0.792l-1.338,0.242c-2.496,0.429 -5.029,0.845 -7.412,1.22l-0.059,0.009c-0.046,0.004 -0.091,0.012 -0.129,0.021l-2.333,0.35c-0.096,0.012 -0.184,0.029 -0.279,0.037c-1.734,0.258 -3.442,0.513 -5.092,0.746l-1.787,0.242l-1.313,0.179c-1.104,0.146 -2.267,0.287 -3.417,0.433c-0.545,0.071 -1.1,0.142 -1.645,0.208l-2.871,0.346l-0.288,0.034c-1.75,0.199 -3.646,0.399 -5.562,0.6l-1.446,0.145l-1.059,0.109c-0.037,0.004 -0.074,0.004 -0.104,0.008l-0.07,0.004c-0.484,0.046 -1.005,0.092 -1.513,0.134c-2.179,0.204 -4.371,0.4 -6.454,0.566l-0.083,0.004c-0.021,0 -0.03,0.005 -0.038,0.005l-0.188,0.012l-1.312,0.096c-2.317,0.171 -4.642,0.329 -6.858,0.462l-0.121,0.009l-3.021,0.162c-1.35,0.071 -2.754,0.134 -4.158,0.188c-0.467,0.021 -0.967,0.046 -1.421,0.066l-0.038,0c-0.037,0 -0.079,0.005 -0.116,0.005l-1.892,0.066l-1.313,0.046c-0.029,-0 -0.058,0.004 -0.083,0.004l-0.008,0c-1.817,0.058 -3.738,0.104 -5.704,0.142l-1.113,0.021l-2.025,0.037l-0.021,0l-0.116,0.004c-0.709,0.005 -1.505,0.009 -2.284,0.013c-0.708,0.004 -1.425,0.008 -2.12,0.008l-1.434,0l-1.712,-0.004l-0.563,0.004l-0.225,0l-0.591,-0.004c-2.13,-0.021 -4.409,-0.075 -6.68,-0.138c-0.633,-0.02 -1.321,-0.02 -1.941,-0.037l-0.03,-0c-0.066,-0.004 -0.116,-0.004 -0.179,-0.004l-1.554,-0.063l-1.133,-0.041c-2.163,-0.08 -4.321,-0.171 -6.354,-0.275l-0.059,-0.005l-0.037,0.001l-3.521,-0.205c-0.525,-0.033 -1.058,-0.071 -1.587,-0.104c-1.425,-0.096 -2.863,-0.183 -4.246,-0.283l-1.034,-0.079l-2.737,-0.213c-1.683,-0.142 -3.483,-0.312 -5.275,-0.487c-0.321,-0.03 -0.638,-0.059 -0.958,-0.092l-3.125,-0.308c-0.038,-0.005 -0.067,-0.005 -0.105,-0.013l-0.037,0c-0.046,-0.004 -0.096,-0.012 -0.142,-0.012c-1.487,-0.163 -2.983,-0.325 -4.446,-0.496c-1.495,-0.175 -2.97,-0.354 -4.379,-0.533l-0.225,-0.03c-0.041,-0.004 -0.091,-0.008 -0.121,-0.012l-0.754,-0.109l-0.708,-0.1c-2.692,-0.358 -5.367,-0.737 -7.858,-1.12l-0.142,-0.025c-0.025,-0.005 -0.046,-0.005 -0.067,-0.009l-3.375,-0.541c-2.108,-0.346 -4.233,-0.7 -6.362,-1.08l-3.863,-0.712c-1.3,-0.246 -2.662,-0.521 -4.016,-0.792c-0.696,-0.141 -1.409,-0.275 -2.105,-0.416l-3.704,-0.771c-0.021,-0.004 -0.037,-0.009 -0.058,-0.009l-0.075,-0.012c-1.442,-0.308 -2.992,-0.671 -4.517,-1.021c-0.929,-0.217 -1.825,-0.4 -2.783,-0.629l-2.425,-0.558c-0.025,-0.005 -0.046,-0.013 -0.067,-0.013l-0.175,-0.037c-0.341,-0.084 -0.725,-0.184 -1.079,-0.271c-1.696,-0.417 -3.375,-0.842 -5.042,-1.271c0,-0 0,-0.004 -0.004,-0.004c-1.087,-0.284 -2.179,-0.563 -3.233,-0.846l-1.288,-0.358l-1.879,-0.521c-0.341,-0.096 -0.683,-0.192 -1.025,-0.292c-1.991,-0.554 -3.987,-1.108 -5.846,-1.662l-3.295,-1l-0.75,-0.225c-0.192,-0.063 -0.405,-0.13 -0.6,-0.192c-2.038,-0.629 -3.88,-1.208 -5.613,-1.771l-0.062,-0.021c-0.025,-0.008 -0.05,-0.012 -0.071,-0.025l-1.684,-0.558l-2.158,-0.708c-0.046,-0.013 -0.083,-0.03 -0.117,-0.042l-0.058,-0.021c-2.079,-0.7 -4.296,-1.479 -6.546,-2.275l-1.221,-0.433l-2.262,-0.809c-0.025,-0.008 -0.046,-0.02 -0.075,-0.029l-0.138,-0.046c-0.521,-0.187 -1.079,-0.404 -1.616,-0.604c-1.209,-0.45 -2.417,-0.896 -3.609,-1.35c-0.037,-0.012 -0.066,-0.025 -0.104,-0.037c-1.454,-0.559 -2.887,-1.109 -4.275,-1.663l-1.183,-0.487c-3.288,-1.321 -6.246,-2.55 -9.004,-3.729l-3.871,-1.7c-2.192,-0.963 -4.392,-1.95 -6.325,-2.842l-0.138,-0.067c-0.05,-0.025 -0.095,-0.041 -0.141,-0.066l-6.642,-3.171l-0.517,-0.246l0,-0.004l-0.008,-0.004l-6.1,-4.063c-39.596,-19.808 -89.204,-50.771 -128.092,-95.071c-66.987,-66.133 -133.675,-104.262 -193.82,-125.391c-0.405,-0.142 -0.813,-0.284 -1.217,-0.425c-6.867,-2.392 -13.654,-4.559 -20.346,-6.525c-0.675,-0.2 -1.354,-0.4 -2.029,-0.596c-2.038,-0.584 -4.063,-1.163 -6.083,-1.709c-0.68,-0.183 -1.35,-0.358 -2.03,-0.537c-3.529,-0.946 -7.033,-1.825 -10.512,-2.663c-0.921,-0.22 -1.846,-0.45 -2.767,-0.662c-1.708,-0.396 -3.412,-0.779 -5.108,-1.15c-1.179,-0.258 -2.35,-0.504 -3.521,-0.754c-1.587,-0.329 -3.171,-0.671 -4.737,-0.984c-0.034,-0.004 -0.067,-0.008 -0.096,-0.02c-3.159,-0.625 -6.284,-1.209 -9.379,-1.746c-0.092,-0.013 -0.171,-0.029 -0.259,-0.042c-0.046,-0.004 -0.083,-0.012 -0.133,-0.025c-2.996,-0.521 -5.975,-1 -8.913,-1.446c-0.216,-0.033 -0.433,-0.062 -0.65,-0.096c-0.104,-0.012 -0.204,-0.029 -0.308,-0.041c-2.729,-0.4 -5.429,-0.784 -8.104,-1.129c-0.517,-0.067 -1.017,-0.113 -1.521,-0.18c-2.5,-0.312 -4.996,-0.604 -7.45,-0.862c-0.579,-0.063 -1.142,-0.108 -1.725,-0.167c-0.037,-0.004 -0.067,-0.004 -0.104,-0.008c-2.317,-0.238 -4.625,-0.458 -6.9,-0.646c-0.625,-0.05 -1.238,-0.096 -1.854,-0.137c-0.254,-0.021 -0.504,-0.038 -0.759,-0.059c-1.975,-0.15 -3.945,-0.304 -5.883,-0.425c-0.912,-0.058 -1.808,-0.096 -2.708,-0.141c-0.138,-0.005 -0.271,-0.013 -0.4,-0.021c-1.746,-0.096 -3.509,-0.2 -5.217,-0.271c-1.642,-0.067 -3.242,-0.104 -4.854,-0.146c-1.088,-0.037 -2.188,-0.079 -3.246,-0.1c-2.671,-0.05 -5.296,-0.079 -7.887,-0.079c-4.046,-0 -8.067,0.075 -12.05,0.2c-1.246,0.037 -2.471,0.1 -3.705,0.146c-2.783,0.108 -5.562,0.241 -8.308,0.404c-1.346,0.083 -2.683,0.171 -4.017,0.262c-2.766,0.192 -5.512,0.421 -8.241,0.671c-1.15,0.109 -2.3,0.2 -3.442,0.313c-3.742,0.379 -7.467,0.787 -11.142,1.262c-0.062,0.009 -0.12,0.013 -0.187,0.025c-3.863,0.496 -7.671,1.059 -11.458,1.663c-0.838,0.133 -1.655,0.279 -2.48,0.416c-2.908,0.484 -5.795,0.988 -8.662,1.53c-1.004,0.187 -2.013,0.387 -3.017,0.583c-2.796,0.546 -5.562,1.125 -8.3,1.729c-0.854,0.188 -1.708,0.367 -2.554,0.563c-3.512,0.791 -6.987,1.62 -10.408,2.495c-0.009,0.005 -0.021,0.005 -0.025,0.005c-10.334,40.495 -15.838,82.925 -15.838,126.637c0,236.696 161.092,435.746 379.609,493.563c5.783,0.237 11.562,0.466 17.479,0.629c0.533,0.008 1.071,-0.05 1.604,-0.079c0.867,-0.034 1.725,-0.134 2.571,-0.259c1.275,-0.2 2.512,-0.491 3.721,-0.879c0.02,-0.004 0.041,-0.012 0.062,-0.021c1.208,-0.387 2.383,-0.875 3.508,-1.45c0.084,-0.041 0.163,-0.083 0.246,-0.133c0.2,-0.104 0.396,-0.208 0.592,-0.317c1.15,-0.658 2.25,-1.408 3.279,-2.25c0.038,-0.029 0.075,-0.062 0.108,-0.091c1.025,-0.85 1.988,-1.78 2.871,-2.805c0.029,-0.037 0.059,-0.075 0.096,-0.108c0.175,-0.212 0.354,-0.425 0.525,-0.646c0.546,-0.687 1.075,-1.404 1.55,-2.162c1.042,-1.696 1.838,-3.488 2.417,-5.346c0.058,-0.179 0.116,-0.358 0.171,-0.542c0.404,-1.412 0.67,-2.85 0.808,-4.304c0.004,-0.083 0.012,-0.162 0.021,-0.246c0.379,-4.462 -0.5,-9.021 -2.692,-13.104l-0.9,-1.696c-0.008,-0.012 -0.021,-0.029 -0.029,-0.041l-17.971,-33.55l0.008,-0l0.021,0.004c0.175,0.037 36.992,7.554 91.425,7.554c118.229,-0 333.096,-35.633 443.821,-274.258c0.463,-0.996 0.829,-2.017 1.146,-3.046c0.2,-0.675 0.342,-1.384 0.483,-2.092Z" style="fill:#fff;fill-rule:nonzero;"/></svg>